<svg xmlns="http://www.w3.org/2000/svg" viewBox="0 0 267.25 139.08"><defs><style>.cls-1{fill:#cc142d;}.cls-2{fill:#ce0e2d;}.cls-3{fill:none;}.cls-4{fill:#dbb875;}</style></defs><g id="Capa_2" data-name="Capa 2"><g id="Capa_1-2" data-name="Capa 1"><path class="cls-1" d="M223.23,44.88a.73.73,0,0,1,.73-.69h1l15.32,14.74h0V45.3a.73.73,0,0,1,.73-.73h4.6a.75.75,0,0,1,.73.73V71.14a.72.72,0,0,1-.73.69H245a1.1,1.1,0,0,1-.5-.2L229.34,56.39h0V70.71a.73.73,0,0,1-.73.73H224a.75.75,0,0,1-.73-.73Zm-21.3,20.8a7.68,7.68,0,1,0-7.64-7.63,7.69,7.69,0,0,0,7.64,7.63m0-21.49a13.82,13.82,0,1,1-13.78,13.86,13.79,13.79,0,0,1,13.78-13.86M168.69,65.76A7.48,7.48,0,0,0,176.18,58a7.47,7.47,0,0,0-7.49-7.76H165V65.76ZM159,45.3a.73.73,0,0,1,.69-.73h9.37a13.44,13.44,0,1,1,0,26.87h-9.37a.72.72,0,0,1-.69-.73Zm-32.59-.42a.73.73,0,0,1,.73-.69h1l15.32,14.74h0V45.3a.73.73,0,0,1,.73-.73h4.6a.75.75,0,0,1,.73.73V71.14a.72.72,0,0,1-.73.69h-.61a1.1,1.1,0,0,1-.5-.2L132.54,56.39h0V70.71a.73.73,0,0,1-.73.73H127.2a.75.75,0,0,1-.73-.73Zm-21.3,20.8a7.68,7.68,0,1,0-7.64-7.63,7.69,7.69,0,0,0,7.64,7.63m0-21.49A13.82,13.82,0,1,1,91.35,58.05a13.79,13.79,0,0,1,13.78-13.86M71,45.3a.73.73,0,0,1,.73-.73h4.57a.76.76,0,0,1,.73.73V65.8h9.13a.73.73,0,0,1,.73.73v4.18a.73.73,0,0,1-.73.73H71.7a.73.73,0,0,1-.73-.73Zm-35.85,0a.73.73,0,0,1,.73-.73H51.74a.73.73,0,0,1,.73.73v4.18a.73.73,0,0,1-.73.73H41.11v5.53h8.75a.76.76,0,0,1,.73.73v4.19a.75.75,0,0,1-.73.72H41.11v9.33a.75.75,0,0,1-.73.73H35.85a.73.73,0,0,1-.73-.73ZM13.78,65.68a7.68,7.68,0,1,0-7.64-7.63,7.69,7.69,0,0,0,7.64,7.63m0-21.49A13.82,13.82,0,1,1,0,58.05,13.79,13.79,0,0,1,13.78,44.19M233.61,6.78h-6.17a.82.82,0,0,1-.82-.82V1.25a.82.82,0,0,1,.82-.82h19.17a.82.82,0,0,1,.82.82V6a.82.82,0,0,1-.82.82h-6.17V29.84a.85.85,0,0,1-.83.82h-5.18a.85.85,0,0,1-.82-.82ZM212.24,1.25a.85.85,0,0,1,.82-.82h5.18a.85.85,0,0,1,.82.82V29.84a.85.85,0,0,1-.82.82h-5.18a.85.85,0,0,1-.82-.82Zm-19,12.09a3.46,3.46,0,0,0,3.28-3.45,3.31,3.31,0,0,0-3.28-3.28h-6.39v6.73ZM180.07,1.25a.82.82,0,0,1,.82-.82H193.8a9.39,9.39,0,0,1,9.41,9.33c0,4-2.63,7.17-6.39,8.68l5.92,11a.82.82,0,0,1-.73,1.25h-5.75a.81.81,0,0,1-.69-.39l-5.74-11.44h-3v11a.85.85,0,0,1-.82.82h-5.14a.82.82,0,0,1-.82-.82Zm-17.49,0a.85.85,0,0,1,.82-.82h5.18a.84.84,0,0,1,.82.82V29.84a.84.84,0,0,1-.82.82H163.4a.85.85,0,0,1-.82-.82Zm-17.7,12.14A3.39,3.39,0,0,0,148.29,10a3.3,3.3,0,0,0-3.41-3.2h-4.11v6.61ZM134,1.25a.82.82,0,0,1,.82-.82h10.4A9.66,9.66,0,0,1,154.94,10a9.71,9.71,0,0,1-9.63,9.71h-4.54V29.84a.85.85,0,0,1-.82.82h-5.09a.82.82,0,0,1-.82-.82ZM105.41,26.56l2-3.59a1.12,1.12,0,0,1,1.47-.26c.17.09,3.28,2.38,6.13,2.38a2.71,2.71,0,0,0,3-2.59c0-1.82-1.51-3.2-4.45-4.36-3.71-1.47-8.38-4.36-8.38-9.55,0-4.27,3.33-8.59,10-8.59a16.07,16.07,0,0,1,9.24,3.24,1.09,1.09,0,0,1,.26,1.38L122.47,8c-.31.47-1.08.86-1.47.56s-3.54-2.59-6.18-2.59a2.5,2.5,0,0,0-2.72,2.2c0,1.6,1.3,2.81,4.71,4.19s8.72,4,8.72,9.84c0,4.45-3.84,8.94-10.19,8.94-5.61,0-8.72-2.33-9.71-3.32-.44-.44-.57-.61-.22-1.21M65.81,1.25a.82.82,0,0,1,.82-.82H84.51a.82.82,0,0,1,.82.82V6a.82.82,0,0,1-.82.82h-12v5.35h9.84a.84.84,0,0,1,.82.82v4.71a.81.81,0,0,1-.82.82H72.55v5.83h12a.82.82,0,0,1,.82.82v4.71a.82.82,0,0,1-.82.82H66.63a.82.82,0,0,1-.82-.82Zm-36.57,0a.85.85,0,0,1,.82-.82H35.2a.82.82,0,0,1,.82.82V12.13H48.37V1.25a.82.82,0,0,1,.82-.82h5.14a.85.85,0,0,1,.82.82V29.84a.85.85,0,0,1-.82.82H49.19a.82.82,0,0,1-.82-.82V18.48H36V29.84a.82.82,0,0,1-.82.82H30.06a.85.85,0,0,1-.82-.82ZM7.86,6.78H1.69A.82.82,0,0,1,.87,6V1.25A.82.82,0,0,1,1.69.43H20.86a.82.82,0,0,1,.82.82V6a.82.82,0,0,1-.82.82H14.69V29.84a.85.85,0,0,1-.82.82H8.68a.85.85,0,0,1-.82-.82Z"/><path class="cls-1" d="M200.43,95.71c0-3.67-1-5.74-2.66-5.74s-2.66,2.07-2.66,5.74.95,5.74,2.66,5.74,2.66-2,2.66-5.74m-9.82,0c0-6.13,2.6-9.8,7.16-9.8s7.17,3.67,7.17,9.8-2.61,9.8-7.17,9.8-7.16-3.67-7.16-9.8m-17.41,8.43c1.62-2.13,5.76-7.76,7.41-10.28a4.05,4.05,0,0,0,.73-2.12c0-1.07-.89-2-2.46-2a4,4,0,0,0-2.72,1.4.54.54,0,0,1-.78,0l-1.71-1.74a.51.51,0,0,1,0-.72,8,8,0,0,1,5.59-2.75c4,0,6.36,2.55,6.36,5.66a7.13,7.13,0,0,1-1.09,3.64c-.9,1.59-3.2,4.59-4.51,6.43h4.92a.56.56,0,0,1,.54.54v2.52a.55.55,0,0,1-.54.53H173.73a.53.53,0,0,1-.53-.53ZM164.49,91.2a2,2,0,0,0-3.94,0c0,1,.64,1.82,2,2.33a2.6,2.6,0,0,0,2-2.33m-2,10.86A2.24,2.24,0,0,0,164.8,100a2.91,2.91,0,0,0-2.29-2.58,3,3,0,0,0-2.27,2.58,2.23,2.23,0,0,0,2.3,2.09m-3.42-6.6v-.09A5.31,5.31,0,0,1,156.24,91c0-3.14,2.8-5.13,6.21-5.13,3.56,0,6.35,2,6.35,5.13,0,2.12-1.79,3.61-2.88,4.31v.11c1.26.7,3.42,2.29,3.42,4.7,0,3-2.69,5.35-6.89,5.35s-6.75-2.3-6.75-5.35c0-2.46,2.89-4.39,3.42-4.7M145.91,92.1h-2.69a.52.52,0,0,1-.5-.53V89.8a.77.77,0,0,1,.17-.42L147,86.19h2.58a.53.53,0,0,1,.5.54v18a.52.52,0,0,1-.5.53h-3.11a.53.53,0,0,1-.53-.53Zm-28.27-5.93a.54.54,0,0,1,.53-.54h11.59a.54.54,0,0,1,.53.54v3a.53.53,0,0,1-.53.53H122v3.47h6.38a.55.55,0,0,1,.53.53v3a.53.53,0,0,1-.53.53H122v3.78h7.75a.53.53,0,0,1,.53.53v3.06a.53.53,0,0,1-.53.53H118.17a.53.53,0,0,1-.53-.53Zm-12.26-.82A9.4,9.4,0,0,1,112.16,88a.52.52,0,0,1,0,.78L110,91a.5.5,0,0,1-.7,0,5.67,5.67,0,0,0-3.78-1.43,5.73,5.73,0,0,0,0,11.45,5.89,5.89,0,0,0,3.75-1.35.57.57,0,0,1,.73,0l2.18,2.33a.55.55,0,0,1,0,.75,9.62,9.62,0,0,1-6.81,2.72,10.08,10.08,0,1,1,0-20.16M73,85.86a.53.53,0,0,1,.53-.51h.7L85.35,96.1h0V86.17a.54.54,0,0,1,.54-.54h3.35a.57.57,0,0,1,.54.54V105a.54.54,0,0,1-.54.51h-.44a.92.92,0,0,1-.37-.14l-11-11.11h0V104.7a.53.53,0,0,1-.53.53H73.51a.56.56,0,0,1-.54-.53Zm-11.31.31a.56.56,0,0,1,.53-.54h3.36a.56.56,0,0,1,.53.54V104.7a.55.55,0,0,1-.53.53H62.17a.55.55,0,0,1-.53-.53Zm-18.56,16.4,1.32-2.32a.71.71,0,0,1,1-.17,8.43,8.43,0,0,0,4,1.54,1.75,1.75,0,0,0,1.93-1.68c0-1.18-1-2.07-2.89-2.83-2.4-1-5.43-2.83-5.43-6.19,0-2.77,2.16-5.57,6.47-5.57a10.46,10.46,0,0,1,6,2.1.73.73,0,0,1,.17.9L54.14,90.5c-.2.31-.7.56-1,.37s-2.3-1.68-4-1.68a1.63,1.63,0,0,0-1.77,1.43c0,1,.84,1.82,3,2.71s5.66,2.58,5.66,6.38c0,2.89-2.49,5.8-6.61,5.8a8.87,8.87,0,0,1-6.3-2.16c-.28-.28-.36-.39-.14-.78"/><path class="cls-2" d="M35.46,94.09v2.7a.83.83,0,0,1-.82.83H1.2a.83.83,0,0,1-.83-.83v-2.7a.83.83,0,0,1,.83-.83H34.64a.83.83,0,0,1,.82.83"/><path class="cls-2" d="M247,94.09v2.7a.83.83,0,0,1-.83.83H212.69a.83.83,0,0,1-.83-.83v-2.7a.83.83,0,0,1,.83-.83h33.44a.83.83,0,0,1,.83.83"/><path class="cls-3" d="M162.9,118.08a4.37,4.37,0,0,1-.44.42l0,0-.21.1a28,28,0,0,0-3,2.7,5.05,5.05,0,0,1-.48.39,9.54,9.54,0,0,0-1.35,1.55c-.16.19-.26.31-.22.39l0,0v.06l.14.06h.12l.1-.1c.55-.38,1.09-.84,1.51-1.19.2-.18.41-.35.62-.51l.05,0c.21-.17.46-.35.68-.56a4.85,4.85,0,0,0,.53-.6l.12-.15a3.19,3.19,0,0,1,.38-.42l.29-.17a9.33,9.33,0,0,0,.77-.64l.79-.81a3.39,3.39,0,0,0,.76-.77.3.3,0,0,0,0-.36l-.1-.12-.1.13a1,1,0,0,1-.38.29l0,0-.3.09Z"/><path class="cls-3" d="M243.7,116.87l0-.18a2.33,2.33,0,0,1-.61.47l-.09.31h0c-.22,0-.48.3-.64.47l-.33.28-.4.3-.66.83a6.08,6.08,0,0,0-.93,1.24,3.92,3.92,0,0,0-.37,1l-.09.29c-.11.3-.16.48-.09.61a.91.91,0,0,0,1.14.16,1.58,1.58,0,0,0,.51-.44,1.79,1.79,0,0,1,.25-.23l0,0c.21-.17.41-.33.37-.64v-.12l.11,0a3,3,0,0,0,.81-1.54v-.11l.09,0a.73.73,0,0,0,.29-.7l0-.08.19-.22a1.05,1.05,0,0,0,.19-.64v-.1l.08,0A.88.88,0,0,0,243.7,116.87Z"/><path class="cls-4" d="M195.94,103.06c.26-.07,1.1-.25,1.13-.26a2.56,2.56,0,0,1,.48,0h.08a1.92,1.92,0,0,0,.34,0h0a5.63,5.63,0,0,0,.76-.19c.22-.07.45-.13.67-.18s.5,0,.78,0a6.31,6.31,0,0,0,.73-.15l.7-.15c2-.28,4.13-.56,6.16-.82l3.7-.48a5.82,5.82,0,0,1,.59,0h.27l.5-.12.42,0,.68,0a3.37,3.37,0,0,1,.55,0,3.17,3.17,0,0,0,.6,0c.87-.1,1.74-.22,2.8-.37s2.08-.3,3.15-.42a3.17,3.17,0,0,1,.53,0H222l1.2-.13h.73l.17,0,.62-.16h.45a4.65,4.65,0,0,0,1.1-.1l.17,0c.3,0,.6-.08.84-.09h.59c.29,0,.55,0,.83,0l.8-.17L230.6,99l2.63-.34H234l.46,0a3.25,3.25,0,0,0,.45-.07l.68-.13.27,0H236a.78.78,0,0,0,.29,0l1.45-.19q.36,0,.78,0h.13a5,5,0,0,0,.77,0l2.26-.28a4.61,4.61,0,0,1,.54,0l.29,0,1,0,.55-.06.59,0,1.15,0,1.25-.13h.69a7.15,7.15,0,0,0,.8,0c.43,0,.85-.06,1.26-.11l.87.06.86,0,.66.1.51,0,.89.08h.57a1.27,1.27,0,0,0,.28.06l.09,0,.63,0a4.48,4.48,0,0,1,.73.14c.17,0,.35.08.66.13a1.8,1.8,0,0,1,1.08.41l.16.14-.23,0a.67.67,0,0,0-.35.2l-.09.06a1.2,1.2,0,0,1-.27.16l-.26.12a4.5,4.5,0,0,1-.48.2l-.24.07a3.42,3.42,0,0,0-.87.34h0a1.62,1.62,0,0,0-.51.15l-.05,0a2,2,0,0,1-.29.11c-.44.13-.85.28-1.28.44l-.15,0a9.81,9.81,0,0,1-1,.36l-.68.14-.17,0-.87.38c-.31.11-.58.21-.85.29l-.58.25a6.91,6.91,0,0,1-.68.16,4.24,4.24,0,0,0-.8.19l-1.2.52-.67.18-1.42.58-1.36.43a8.85,8.85,0,0,0-.89.51c-.13.08-.25.16-.37.22l.11.28a5.21,5.21,0,0,0,.6,0,10.91,10.91,0,0,0,2.17-.52h0a13.19,13.19,0,0,1,1.74-.46,1.86,1.86,0,0,0,.47-.16,2.29,2.29,0,0,1,.46-.17c.2,0,.42-.09.68-.13l1.49-.51.79-.24.55-.21c.29-.12.63-.26,1-.37l.84-.15h0c.14-.07.31-.13.48-.2l1.49-.4.77-.27c.47-.18.93-.34,1.36-.48l.5-.1.3-.07.54-.26.51-.14.19-.11.08,0a4,4,0,0,1,.49-.25l.05,0A3,3,0,0,0,260,99a.83.83,0,0,0,0-.94l-.08-.15a1.26,1.26,0,0,0-.35-.52,1.54,1.54,0,0,0-.57-.26l-.08,0-.28-.09a6,6,0,0,0-1.65-.36l-1.2-.16-.44-.1h-.78l-.51,0-1,.06a1.63,1.63,0,0,1-.35,0,1,1,0,0,0-.4,0,3.11,3.11,0,0,1-.69,0h-.06a4.12,4.12,0,0,0-.54,0l-.89.07h0l-.86-.06-1.37.15-.91,0a2.08,2.08,0,0,1-.35,0h0a1.68,1.68,0,0,0-.81.09c-.42,0-.79,0-1.15,0h-.75a.56.56,0,0,0-.13,0h-.13l-.18,0-.31,0-.52,0-.24,0-.16,0-.38,0h-.55l0,.13-.37,0-.1,0h-.13l0,0h-.1c-.15,0-.49,0-.82,0a1.68,1.68,0,0,0-.55.14c-.55.06-1.08.07-1.6.09h-.22a15.81,15.81,0,0,0-1.63.1l-.37,0a1.77,1.77,0,0,0-.52.12,4.21,4.21,0,0,1-.5,0h0a3.25,3.25,0,0,0-1.05.09h0a2.9,2.9,0,0,1-.44.07l-.1,0h-.56a9.17,9.17,0,0,0-1.05,0,1.87,1.87,0,0,0-.52.13h0l-2.29.26h-.55c-.29,0-.59,0-.88,0a2,2,0,0,0-.59.14h0a4.94,4.94,0,0,1-.76,0,6.47,6.47,0,0,0-.88,0,1.58,1.58,0,0,0-.56.14h0c-.37,0-.7,0-1,.06h-.2c-.25,0-.57,0-.88.05h-.07l-.12.18h-.63a8.43,8.43,0,0,0-.87,0c-.31,0-.5.09-.57.19l-.15,0-.36,0a7.11,7.11,0,0,0-.86,0,3,3,0,0,0-.73.15h0c-.21,0-.5,0-.76,0a8.17,8.17,0,0,0-.86,0,1.53,1.53,0,0,0-.55.14l-.5,0-.82.07a3.59,3.59,0,0,0-.81.16h0a5.89,5.89,0,0,1-.75,0,6.13,6.13,0,0,0-.86,0,1.72,1.72,0,0,0-.54.14h0l-.51.09-.08,0a6,6,0,0,1-.92.1,1.42,1.42,0,0,0-.57.06l-.34.06a2.84,2.84,0,0,1-1.14,0l-.1,0-.07.08a1.1,1.1,0,0,1-.54.21h0a1.33,1.33,0,0,0-.52.16h0l-.14,0-.16,0v0l-.31,0-.31,0h-.23a.92.92,0,0,0-.43.15l0,0c-.32,0-.61,0-.88,0h-.05a3,3,0,0,1-.63,0l-.1,0-.05.08a.21.21,0,0,1-.16.07h-.16a1.7,1.7,0,0,0-.3.08l-.34.09-.24,0-.84.07a2.25,2.25,0,0,0-.63.14l-1.3.12a2.84,2.84,0,0,0-.86.17l-1.29.11a3,3,0,0,0-.83.16h0l-.83.09-.53,0,0,.15-.82.07-.21-.06-.13.15-.42,0a1,1,0,0,0-.42.12h0a1.87,1.87,0,0,1-.34,0h-.07a1.91,1.91,0,0,0-.24,0,1.87,1.87,0,0,0-.39.09,1,1,0,0,1-.45.09h-.18v.09h-.59l-.51.1a1.6,1.6,0,0,1-.47,0h-.08l-.13.14-.07,0a.51.51,0,0,1-.26-.07l0,0h0l-.23,0-.17,0h-.74v0l-.15,0-.5.11a2.19,2.19,0,0,0-.36,0l-.16,0-.22.08-.33.11h-.34a1.64,1.64,0,0,0-.35,0l-.72.07-.56,0h0a2.68,2.68,0,0,0-.48.13l-.16,0a4.43,4.43,0,0,1-.58.16,1.7,1.7,0,0,1-.31.06,1.3,1.3,0,0,1-.61,0l-.1,0-.07.08a1,1,0,0,1-.47.16l-.26.07h0l-.53,0-.82.07a2.77,2.77,0,0,0-.79.17l-.45,0-.7,0a2.19,2.19,0,0,0-1,.31l-.87.09a3.82,3.82,0,0,1-.58,0h0a1.78,1.78,0,0,0-.4,0h0a2.88,2.88,0,0,0-.48.15,3.44,3.44,0,0,1-.66.2l-.3,0H173a1.59,1.59,0,0,0-.74.17h0l-1.9.23a1.21,1.21,0,0,0-.2.07l-.12,0a2.64,2.64,0,0,1-.37.1l-.59,0a1.07,1.07,0,0,0-.53.18,1.48,1.48,0,0,1-.3,0l-.32,0-.54.11a2.87,2.87,0,0,1-.59.12l-.49,0a1.48,1.48,0,0,0-.47.12l-2,.22-.8.22-1.16.16-.26,0,0,.17-.57,0h0l-.13,0-.29.08a1.46,1.46,0,0,1-.22,0l-.49,0a1.51,1.51,0,0,0-.45.1l-.24,0c-.58.06-1.13.16-1.87.31a3.71,3.71,0,0,1-.54.19l-.21,0-.46,0-.48,0a1.86,1.86,0,0,0-.6.15h0a2,2,0,0,0-.42.09l-.26.07-.4.07h-.09a2.67,2.67,0,0,0-.89.23l-.33.06a1.18,1.18,0,0,0-.52.15l-.41,0-.15,0-.78.19-.79.19-.29,0h-.12l-.41,0a1.78,1.78,0,0,0-.54.13h0a2.84,2.84,0,0,0-.49.1l-.53.11-.58,0a2.38,2.38,0,0,0-.58.14h0a7.1,7.1,0,0,0-2.06.48h0a5.72,5.72,0,0,0-.72.14l-.15,0a4.92,4.92,0,0,1-1,.14,4.25,4.25,0,0,1-.7-.06H141a2.78,2.78,0,0,0-.8-.06h0l-.23.06a5.75,5.75,0,0,1-1.1,0l-.36,0c-.32,0-.65,0-1,0h-.29c-.37,0-.75,0-1.1,0a1.09,1.09,0,0,1-.25,0,.94.94,0,0,0-.35,0c-.63.07-1.19.09-1.72.1s-1.08,0-1.63.08l-.53,0a2.09,2.09,0,0,0-.49.11l-1.27.12a2.59,2.59,0,0,0-.8.15h0l-.26,0-.38,0a1,1,0,0,0-.59.21h0a1.46,1.46,0,0,1-.3,0h0a.92.92,0,0,0-.3,0,1.09,1.09,0,0,0-.32.1l0,0c-.07,0-.16.06-.26.08l-.48.1-.34.07-.37.08-.68.13a9.6,9.6,0,0,0-1.68.4l-.57.18a2.49,2.49,0,0,1-.52.09,1.78,1.78,0,0,0-.52.11c-.26.15-.33.25-.35.31s0,.29.16.54l0,0c.63,1.11,1.59,1.3,3.22,1.25l.59.09.67-.13a3.39,3.39,0,0,1,.44,0l.6,0,1.69-.23c.42-.07.83-.12,1.22-.17s1.35-.16,1.36-.16c.59-.06,1.27-.14,1.92-.27l.8-.22,1.83-.22h0l.43-.16c.29-.07.59-.13.88-.18h.11l.84-.16.56-.16.16,0,1.37-.18.52-.17c.43-.07.81-.13,1.24-.18l.28-.08a4,4,0,0,1,1.25-.19l.57.1a7.09,7.09,0,0,1,3,1l1.17.51a2.21,2.21,0,0,1,.6.63l.74.9c.05.11.1.22.14.33l.07.16a4.58,4.58,0,0,0,.24.59l.32.7a6.74,6.74,0,0,1-.06,3.33l-.21.78-.53,1.07-.27.77-.56.77-1.05,1.65-.41.43-.27.55c-.16.17-.31.34-.47.5l-.12.14-.28.32-.48.62c-.19.24-.39.49-.6.72s-.32.43-.48.65l-.07.11a3.25,3.25,0,0,1-1,1.1l-.09,0v.1a.88.88,0,0,1-.18.42,2.73,2.73,0,0,0-.29.53,1.31,1.31,0,0,0-.76.54l-.17.18-.56.49-.2.17-.45.63-.12.09a3.79,3.79,0,0,0-.37.31l-.78.82-.36.3-.39.52-.75.73-.52.72-.22.24-.14.14a2.92,2.92,0,0,0-.6.75.68.68,0,0,0,.07.68.74.74,0,0,0,.66.25c.64-.07,1.4-.84,1.86-1.3a2.78,2.78,0,0,1,.28-.24,2.35,2.35,0,0,0,.29-.26,1.48,1.48,0,0,0,.17-.28,1.25,1.25,0,0,1,.23-.38l.36-.37a7.41,7.41,0,0,0,1.29-1.54,1.43,1.43,0,0,1,.44-.5l.17-.17.89-1a9.94,9.94,0,0,0,.62-.83l.31-.46a4.54,4.54,0,0,1,.74-.7l.3-.23,0,0,.33-.43.09-.11c.28-.27.52-.52.71-.73l.22-.22.31-.33c.39-.37.77-.72,1.15-1.06a17,17,0,0,0,1.33-1.24l.39-.49.11-.13c.15-.11.3-.22.6-.47.41-.44.84-.87,1.3-1.32l.09-.08c.42-.42.92-.91,1.42-1.44l1.46-1.25c.23-.24.49-.5.84-.83l.8-.65,0,0,.05-.07a.88.88,0,0,1,.24-.29l.38-.33.24-.21c.31-.24.66-.53,1-.86l.33-.35,0,0c.17-.17.33-.35.48-.51l.66-.51.61-.62.19-.13,0,0c.34-.24.46-.36.47-.43l.27-.38h.11l0,0,1.41-1.09,0,0a2.76,2.76,0,0,1,.21-.25l0,0a1.82,1.82,0,0,1,.58-.4l.23-.06a.47.47,0,0,1,.24,0l.1,0,.07-.07.29-.27.09-.08c.74-.66.91-.86,1-1a.36.36,0,0,0,0-.37c-.1-.15-.35-.22-.67-.31l-.27-.08-.1,0-.15.16a3.28,3.28,0,0,0-.31.2l-.18.12-.26.17-.43.23a5.22,5.22,0,0,0-.85.52L162,113a5.73,5.73,0,0,1-.45.39l-.34.31-.2.24,0,0a4.82,4.82,0,0,1-.47.39,2.54,2.54,0,0,0-.95,1c-.3,0-.82.51-1.52,1.21l-.29.28-.27.22-.58.44a1.48,1.48,0,0,0-.22.29l0,0a2.75,2.75,0,0,1-.22.26c-.21.19-.45.41-.74.65l-.06.06a7.26,7.26,0,0,0-.65.58l-1.21,1.24-.74.59-.09.1-.19.2a4.31,4.31,0,0,1-.47.5l-.1.08-.24.18a3.13,3.13,0,0,0-.8.82l-.38-.06a.73.73,0,0,1,.13-.4l0-.08c.06-.2.15-.43.24-.66l.06-.15c.1-.23.17-.42.24-.61a1.38,1.38,0,0,0,.05-.25.77.77,0,0,1,.14-.4l.05,0v-.07a4.79,4.79,0,0,1,0-.85l0-.22a4.41,4.41,0,0,0,0-.54c0-.29-.08-.91-.1-1.2v-.17l-.12-.3a1.79,1.79,0,0,1-.18-.48c0-.19-.11-.41-.15-.64s-.14-.24-.21-.36l-.05-.08a3.28,3.28,0,0,1-.26-.43,2.23,2.23,0,0,0-.08-.24s0-.08,0-.13l-.07-.2,0,0-.25-.29,0,0a1.52,1.52,0,0,1-.22-.25l0-.06a3.78,3.78,0,0,0-.65-.73l-.8-.59a1.81,1.81,0,0,0-.43-.33l-.33-.17a2.8,2.8,0,0,1-.86-.52l-.17-.13c0-.12.15-.19.51-.31a5.18,5.18,0,0,1,1.49-.31,7.75,7.75,0,0,0,.83-.13c.5-.09,1-.22,1.36-.31l.09,0c.56-.13,1.08-.26,1.64-.36a1.78,1.78,0,0,0,.33-.09l0,0c.12,0,.24-.09.37-.12l1.67-.2.54-.11,1.41-.3.46-.15,3.4-.44,1.17-.33,2.46-.38,1.17-.23.09,0c.46-.1.94-.21,1.41-.28s.81-.12,1.22-.17l.26,0c.37,0,.7-.08,1-.14l.67-.21,1.73-.21a5.68,5.68,0,0,0,.58-.13,2.93,2.93,0,0,1,.49-.12l.6,0a5.52,5.52,0,0,1,.54-.12l.44-.09c.48-.07,1-.12,1.44-.17.74-.09,1.36-.16,2-.26l.15,0v0l.2-.06.39-.12,1.88-.21v0h0c.34-.07,1.11-.23,1.34-.29l4.3-.56.42-.06c1.37-.18,2.92-.39,4.41-.56l1.12-.23.36,0h.17l.61,0,.71-.09C194.81,103.24,195.4,103.17,195.94,103.06Z"/><path class="cls-4" d="M188.11,117.48a2.21,2.21,0,0,0-.49.11l-.54.2-.22.09-.5.12a5.61,5.61,0,0,0-1,.32l-.1.05c-.21.11-.42.23-.67.34l-.34.14c-.18.06-.36.13-.64.21l-.49.12v0l-.08.07a.92.92,0,0,1-.48.22h-.1c-.06,0-.12-.09-.09-.19v0l0-.13.53-.63.71-1,.31-.32a1,1,0,0,0,.05-1.18.45.45,0,0,0-.22-.27,1,1,0,0,0-.46,0c-1.46.16-3.35,2.61-4.25,3.79l-.29.38a1.75,1.75,0,0,0-.26.42l0,.07a1.64,1.64,0,0,1-.42.59,1.2,1.2,0,0,1-.44.19,1.47,1.47,0,0,0-.28.08l-.27.14-.8.39h0a.49.49,0,0,1-.49-.15c-.3-.36.16-1.27.62-2.09l.07-.12.08-.17a.79.79,0,0,0-.11-.83.6.6,0,0,0-.53-.2,1.49,1.49,0,0,0-.39.1l-.48.13,0,0-.41.29a1.54,1.54,0,0,1-.86.4h-.12a.8.8,0,0,1,.19-.43c.13-.34.23-.72-.05-1a.74.74,0,0,0-.66-.17h0l-.11,0a3.51,3.51,0,0,0-1.08.64,5.2,5.2,0,0,1-.51.38l-1,.63c-.42.33-.82.68-1.23,1l-.27.24-.54.46-.26.19-.29.25-.28.28-.24.14-.37-.06c0-.14.11-.33.39-.73a2.17,2.17,0,0,0,.42-.69l.13-.15h.09l0-.08c.07-.15.14-.3.22-.45l0-.06.35-.4c.13-.18.27-.38.4-.6l.21-.3,0-.07a.76.76,0,0,0-.35-.76.63.63,0,0,0-.34-.06,3.06,3.06,0,0,0-1.18.62,4.33,4.33,0,0,1-.79.47h-.18l0-.13a.75.75,0,0,1,.21-.39l.09-.1.08-.1,0,0,0-.25a2,2,0,0,1,.06-.37l.11-.26.2-.38s0-.06,0-.34v-.06a.92.92,0,0,0-.22-.55c-.41-.46-1-.44-1.71-.36l-.2,0h-.27l-.05,0a2.23,2.23,0,0,1-.69.45l-.06,0-.27.16a5.82,5.82,0,0,0-.5.35l-.18.13c-.13.09-.26.19-.39.27l-.28.16-.36.21a3.5,3.5,0,0,0-.31.27l0,0c-.08.08-.2.2-.33.31l-.86.7-.18.18c-.06.07-.13.13-.18.2l-.22.14c-.32.19-.57.36-.65.68a3.91,3.91,0,0,0-1.4,1.31.59.59,0,0,0-.38.15,2.28,2.28,0,0,0-.4.56l-.06.1a2.53,2.53,0,0,1-.25.35,7.82,7.82,0,0,1-.63.66,3.08,3.08,0,0,0-.81,1l-.2.25h-.12l-.08.21-.22.34c-.3.45-.38.63.09,1.29a.73.73,0,0,0,.31.29,1.07,1.07,0,0,0,.64.11,3.29,3.29,0,0,0,1.1-.41l.16-.09a2.27,2.27,0,0,1,.69-.27l.19-.12a.2.2,0,0,1,.08-.13,8.22,8.22,0,0,1,1.79-1.24.72.72,0,0,1,.5.24c.35.28.56.41.87.37a2.62,2.62,0,0,0,.69-.21,2.69,2.69,0,0,0,.78-.49l.09-.07a3.85,3.85,0,0,1,.47-.37l.32-.19.21-.22a1.09,1.09,0,0,1,.62-.42.35.35,0,0,1,.33.13l.19.53a1.54,1.54,0,0,0,.84.86,1.17,1.17,0,0,0,.46,0,3.83,3.83,0,0,0,1.73-.94l.42-.32.56-.35c.1-.11.23-.23.36-.36l0,0,.62-.59.32,0v.1a.82.82,0,0,0,.28.53c.06.06.11.13.17.2a1,1,0,0,0,.26.27,1.31,1.31,0,0,0,.72.08,1.84,1.84,0,0,0,.47-.1l.06,0,.16-.16.15-.13a.88.88,0,0,1,.17-.14l.4-.27a4.8,4.8,0,0,1,.71-.43h0l.22,0,0,.11.12.22a2,2,0,0,0,2.15,1.4,1.38,1.38,0,0,0,.26,0,4,4,0,0,0,.77-.29,3.75,3.75,0,0,1,1.11-.38,2.1,2.1,0,0,1,.71.06,3.58,3.58,0,0,0,.37.06,2.71,2.71,0,0,0,1.15-.25l.63-.44a5.4,5.4,0,0,1,.59-.3c.27-.13.51-.25.75-.39l.31-.19L183,121a2.9,2.9,0,0,1,1.22-.5,2.74,2.74,0,0,1,.4,0,2.42,2.42,0,0,0,0,.45.92.92,0,0,0,.76.7h.05a8.31,8.31,0,0,0,2.37-1.3l.41-.28a3.85,3.85,0,0,1,.38-.23,3.38,3.38,0,0,0,.54-.36c.26-.24.83-.86.58-1.3A1.48,1.48,0,0,0,188.11,117.48Zm-24.65.32a1,1,0,0,0,.38-.29l.1-.13.1.12a.3.3,0,0,1,0,.36,3.39,3.39,0,0,1-.76.77l-.79.81a9.33,9.33,0,0,1-.77.64l-.29.17a3.19,3.19,0,0,0-.38.42l-.12.15a4.85,4.85,0,0,1-.53.6c-.22.21-.47.39-.68.56l-.05,0c-.21.16-.42.33-.62.51-.42.35-1,.81-1.51,1.19l-.1.1h-.12l-.14-.06v-.06l0,0c0-.08.06-.2.22-.39a9.54,9.54,0,0,1,1.35-1.55,5.05,5.05,0,0,0,.48-.39,28,28,0,0,1,3-2.7l.21-.1,0,0a4.37,4.37,0,0,0,.44-.42l.28-.15.3-.09Z"/><path class="cls-4" d="M267.22,109.06a.7.7,0,0,0-.7-.56v0l-.08,0a.38.38,0,0,0-.11-.05,7.39,7.39,0,0,0-1.18-.28l-.41-.08-.39,0-.16,0-.36-.08a4.34,4.34,0,0,0-1.08-.2,9.6,9.6,0,0,0-2.12.29l-.42.11-.08,0-.24,0-.09,0-.28,0-.11,0-.31.17a6.21,6.21,0,0,1-.62.14l-.12,0-.32.2-.42.14a2.82,2.82,0,0,0-1.1.51h0a3.4,3.4,0,0,0-1.37.59l-.08,0a4.3,4.3,0,0,1-1.28.6l-.14-.13,0-.44v0a1.92,1.92,0,0,1,.45-.74l0-.06a2.36,2.36,0,0,0,.52-.95h0c.12,0,.26-.13.64-.66l.05-.06a1.57,1.57,0,0,1,.23-.3,4.23,4.23,0,0,1,.3-.3l.1-.1.28-.28.22-.35.34-.35a8,8,0,0,0,.75-.8l.34-.59.33-.3a3.38,3.38,0,0,0,.53-.89.86.86,0,0,0-.07-.57c-.09-.19-.41-.26-.66-.23a.62.62,0,0,0-.36.13,13.1,13.1,0,0,0-1.25,1.64l-.15.16-.1,0,0,0-.22.29-.06.08a3.08,3.08,0,0,1-.24.34l-.62.64-.43.54a2,2,0,0,1-.32.24,1.62,1.62,0,0,0-.29.23l-.62.62a.87.87,0,0,1-.15.13l0,0-.07.15-.05,0a3.92,3.92,0,0,0-.93.72l-.38.34-.31.18-1.22,1a.83.83,0,0,1-.18.13l-.06,0a1,1,0,0,0-.47.43l-.31.09-.18,0v-.1c0-.12,0-.2.16-.42l0-.07a3.05,3.05,0,0,1,.34-.59l.1-.13c0-.06.07-.11.11-.18l.32-.54c.12-.11.46-.38.5-.41a7.67,7.67,0,0,0,1.08-1.39.85.85,0,0,0-.28-.8A.49.49,0,0,0,251,106c-.45,0-1,.61-1.41,1l-.42.43-.19.3a3.41,3.41,0,0,1-.44.55c-.09.09-.27.22-.42.34l-.17.13a4.28,4.28,0,0,0-.87.78h0a1.77,1.77,0,0,0-.94.53,2.81,2.81,0,0,1-.36.27c-.11.08-.23.14-.35.22l-.53.33-.35.19a.52.52,0,0,0-.15.07l-.67.44c-.72.38-1.46.78-2.29,1.12l-.25.12a1,1,0,0,1-.67.12,1,1,0,0,1,.25-.56,5.08,5.08,0,0,1,.34-.43l.15-.19c.55-.64,1-1.2.93-1.53s-.2-.55-.79-.48a1.48,1.48,0,0,0-.45.11l0,0a1.22,1.22,0,0,1-.26.18l-.23.14a1.4,1.4,0,0,0-.6.54,1.76,1.76,0,0,0-1,.55l-.05.05c-.12.1-.23.2-.36.29l-.26.15a1.22,1.22,0,0,0-.53.42l-.37,0-.12-.09,0-.15a1.46,1.46,0,0,1,.07-.19c.06-.21.12-.39.18-.55l.08-.14.08-.14a1.66,1.66,0,0,0,.23-.41,2.39,2.39,0,0,0-.48-2.25l0,0-.19-.09a3.17,3.17,0,0,0-1.07-.16l-.42,0a1.25,1.25,0,0,0-.37.09l-.9.14a2.82,2.82,0,0,0-.63.31l-.09,0a4.34,4.34,0,0,1-.43.23l-.43.13a4.18,4.18,0,0,0-.56.28l-.08,0c-.17.09-.35.19-.52.26l-.69.16-.2.11a1.21,1.21,0,0,1-.28.16,6.45,6.45,0,0,1-.64.14h-.05l-.46.28-.34.23-.59.26-.43.24-.15.09a1.76,1.76,0,0,1-.27.14l-.12,0,0,.12-.11,0c-.29,0-.41-.23-.5-.53l0-.07a.69.69,0,0,0-.06-.14,1.12,1.12,0,0,0-1-.42,1.32,1.32,0,0,0-.5.16h0a2.22,2.22,0,0,0-.78.24h0a2.38,2.38,0,0,0-.92.37l-.42.22-1.09.5-.18.15-.55.31a.73.73,0,0,1-.51-.22h0a.56.56,0,0,0-.42-.2,6.49,6.49,0,0,0-1.77.87,1.82,1.82,0,0,0-.31.31l-.07.07c-.1.1-.2.2-.31.29-.69.52-1.41,1-2.1,1.44l-.16.11-.21.14a1.48,1.48,0,0,1-.55.27l-.14,0,0,.16-.17,0-.16-.07,0-.07c-.07-.21.25-.6.39-.77l.06,0,0-.08a.41.41,0,0,1,0-.25l.19-.29a3.38,3.38,0,0,0,.45-.64l.18-.27a.77.77,0,0,1,.12-.17l.06-.08a1,1,0,0,0,.31-.52.57.57,0,0,0-.22-.36l-.18-.15h0a1.6,1.6,0,0,0-.3,0l-.2,0a3.36,3.36,0,0,0-1.17.74l-.12.1-.38.29-1.28.84a.5.5,0,0,0-.2.24l-.05.13-.11,0a2.68,2.68,0,0,0-.66.31l-.21.12,0,.15-.37,0v-.1a1.21,1.21,0,0,1,.36-.84l0-.05a.62.62,0,0,1,.09-.11l.09-.14a5.7,5.7,0,0,0,.64-1.36h0l0-.06.08-.17v0a.63.63,0,0,1,.13-.2l.06,0v-.08c0-.1,0-.2,0-.29v-.07c0-.42,0-.69-.43-1a.39.39,0,0,0-.33-.08l-.34,0a1.77,1.77,0,0,0-.5.1,4.57,4.57,0,0,0-.55.32l-.15.09a5.82,5.82,0,0,1-.82.48l-.06,0,0,.06a2.56,2.56,0,0,1-.72.54,3.16,3.16,0,0,1-.4.23l0,0,0,0a3.48,3.48,0,0,1-1.12.88,1.65,1.65,0,0,0-.27.21l0,0a2.53,2.53,0,0,1-.26.22l-.26.14-.48.26h0c-.13,0-.21-.09-.32-.33-.43-.59-1.63-.81-2.61-1a4.59,4.59,0,0,1-.85-.21h-.27l.12-.17a1,1,0,0,1,.34-.29,1.19,1.19,0,0,0,.39-.43c.26,0,.35-.16.46-.37a1,1,0,0,1,.3-.37,10.35,10.35,0,0,0,1.22-1l.81-.69a3,3,0,0,0,.48-.59,2.26,2.26,0,0,1,.23-.31c.59-.77.8-1.41.06-2.19l-.16-.19a1.28,1.28,0,0,0-.63-.46,4.1,4.1,0,0,0-1.89-.37,10.54,10.54,0,0,1-1.24.07h0l0,0a1,1,0,0,1-.22.1l-.24.1-.43,0a2,2,0,0,0-.53.13h0a1.42,1.42,0,0,0-.56.18,2.15,2.15,0,0,1-.38.15,3.86,3.86,0,0,1-.49.1,3.73,3.73,0,0,0-.56.12s-.63.33-.81.4l-.34.14c-2.53,1-2.78,1.47-2.72,1.78a1.94,1.94,0,0,0,1.75.94l.14,0,.08,0,.08-.25-.11-.06a1.8,1.8,0,0,0-.28-.11l-.16-.05v-.06c-.09-.83,4.57-2.13,5.6-2.24h.21l.36,0,.58-.07a5.07,5.07,0,0,1,.58.08h.51l.73.31a1.65,1.65,0,0,1-.48,1.12l0,0v0c0,.2-.5.67-1.94,2l-.33.29-.3.27-.38.43a1.4,1.4,0,0,1-.22.17,1,1,0,0,1-.2.13l-.09,0v.14h-.14l-.2-.08a1.27,1.27,0,0,1,.05-.46c0-.08,0-.15.06-.25v-.21a.4.4,0,0,1,0-.17l0-.1-.08-.08a1.39,1.39,0,0,1-.2-.31c-.06-.13-.08-.16-.13-.2a1.06,1.06,0,0,0-.66-.15.52.52,0,0,0-.29.1,5,5,0,0,0-.92,1.6s0,.1,0,.15v.08a.73.73,0,0,1-.1.42l0,.06.1.25-.17,0c-.09,0-.12.1-.15.15-.13.21-.24.41-.35.62s-.33.58-.47.8a14.42,14.42,0,0,0-1.42,2.07l-.58.71c-.08.17-.18.36-.29.55l-.46.84a1.4,1.4,0,0,0-.11.33,1,1,0,0,1-.22.52l-.06.06v.08a1.56,1.56,0,0,0,.93,1.24.58.58,0,0,0,.35.07h.05a3.86,3.86,0,0,0,1.33-1.24.8.8,0,0,1,.15-.21l.06-.05,0-.29v0a1.91,1.91,0,0,1,.06-.21.47.47,0,0,0,.05-.24,1.49,1.49,0,0,0-.09-.31l0-.08a.84.84,0,0,1-.1-.55,2.15,2.15,0,0,1,.44-.71L197,116c.16-.28.31-.54.46-.78s.24-.33.35-.49l.3-.42a2.91,2.91,0,0,1,.9-.94.59.59,0,0,1,.49.2.75.75,0,0,0,.32.17,2.25,2.25,0,0,0,.4.12,12.6,12.6,0,0,0,1.54.21l.33,0h.28l.35.09c.31.14.61.27.87.37l.18.15,0,.18a1,1,0,0,1,0,.49,5.72,5.72,0,0,1-1.62,1.82l-1.09,1.29-.68.56,0,0c-.08.14-.16.26-.25.39l-.18.19-.29.32-.22.27,0,.07a1.14,1.14,0,0,0,.19.36.63.63,0,0,0,.66.38h0a.62.62,0,0,0,.19-.11l.07,0,.13-.08a7.35,7.35,0,0,0,1.42-.93c.19-.17.37-.35.53-.52l.08-.1a5,5,0,0,1,.4-.39,7.75,7.75,0,0,0,1.35-1.46l.32-.5,0,0a7.47,7.47,0,0,1,.85-1.16,6.37,6.37,0,0,1,.92-.82l0,0a7.22,7.22,0,0,0,.68-.56,4.07,4.07,0,0,1,2.11-1.31,1.31,1.31,0,0,1-.19.53,7.11,7.11,0,0,1-1,1.53,1.5,1.5,0,0,0-.19.32,1.13,1.13,0,0,1-.36.52l-.12.05,0,.13s0,.1,0,.13,0,.17-.18.33a1.8,1.8,0,0,0-.32,1.32.73.73,0,0,0,.27.34.82.82,0,0,0,.58.21,6.31,6.31,0,0,0,2.2-1.3l.4-.3.28-.21,0,0a1.09,1.09,0,0,1,.81-.43.09.09,0,0,1,.07,0c.33,0,.48.37.58.58v0a.85.85,0,0,0,.1.19,1.46,1.46,0,0,0,1.26.54,3.76,3.76,0,0,0,1.89-.91,1.66,1.66,0,0,1,.33-.16l.19-.16a1.18,1.18,0,0,1,.86-.3h0a.49.49,0,0,1,0,.41l-.08.18-.08.11.1.09a2.48,2.48,0,0,1,.42.53l0,.08h.09l.28,0H218l.22,0h.28l.05-.2a2.19,2.19,0,0,1,.86-1.15l0,0,.34-.31.36-.45a12.62,12.62,0,0,1,4.18-2.81l.09,0v-.15h.12c.09,0,.17,0,.37.16l0,.21h-.11l-.06,0c-.08,0-.2.16-.75,1.06l0,.07c-.12.2-.23.38-.29.46l-.15.21-.33.47a.47.47,0,0,1-.12.18l-.05,0v.06a.66.66,0,0,1,0,.11,2.19,2.19,0,0,1-.42.46l-.07.06,0,.08a.87.87,0,0,0,.31.61,1,1,0,0,0,.74.14l.22,0H224l0-.12a2.94,2.94,0,0,1,.8-1.17c.19-.18.38-.36.55-.54a6.88,6.88,0,0,1,1.19-1l.57-.35.09-.06a5.84,5.84,0,0,0,.53-.33l1-.71a5.21,5.21,0,0,1,1.44-.61l.28,0-.38.67c-.09.16-.2.36-.34.59l0,.06c-.47.79-1,1.78-.52,2.52l0,0a1,1,0,0,0,.47.42,1.35,1.35,0,0,0,.45,0c1.24-.14,2.45-2.07,2.91-2.89l.16-.24.06-.09a1.43,1.43,0,0,0,.17-.32l0-.43a2,2,0,0,0,0-1.51l.08-.16,0,0a2.65,2.65,0,0,0,.51-.33l.16-.13.14-.1a3.68,3.68,0,0,1,1.05-.23,2,2,0,0,1,.62,0,.29.29,0,0,1,.18.26,4.83,4.83,0,0,1-1.18,2.42l-.07.06,0,.09a1,1,0,0,0,0,.13l.06.19-.27,0,0,.12a2.19,2.19,0,0,1-.26.61l0,0c-.28.65-.54,1.26-.08,1.89a.66.66,0,0,0,.65.32l.11,0,.31-.06h0l.08-.07.42-.34.21-.17.26-.2.06,0c.08,0,.14-.09.22-.14l.05,0,.23-.19.16-.14a5.21,5.21,0,0,1,.51-.42,1,1,0,0,1,.48-.24c.33,0,.41.24.47.49l0,.07a.49.49,0,0,0,.06.16,1.33,1.33,0,0,0,1.17.53,7.38,7.38,0,0,0,2.23-.91,1.22,1.22,0,0,1,.19-.13l.1-.08c.94-.49,1.86-1,2.47-1.33l.22-.17,0,0a1.71,1.71,0,0,1,.67-.38.41.41,0,0,1,.39.13.36.36,0,0,1,0,.32l0,0-.07.07.08.23c0,.14-.05.2-.2.33l-.27.38-.42.35-.14.15a1.19,1.19,0,0,1-.3.29s-.93.54-1.17.7l-1.22,1-.21.15a1.91,1.91,0,0,0-.4.31l0,0,0,.14-.11,0a1.32,1.32,0,0,0-.58.49,1.9,1.9,0,0,1-.2.22,3,3,0,0,1-.42.35l0,0a1.75,1.75,0,0,0-.34.27c-.08.08-.14.16-.2.23l-.21.25-.23.29c-.16.19-.31.39-.46.56l0,.05a2.52,2.52,0,0,1-.74.8l-.07,0v.09a2,2,0,0,1-.26,1v0a4.28,4.28,0,0,0-.17.43,2.52,2.52,0,0,0,.93,2.49,1.89,1.89,0,0,0,1.4.25,3.51,3.51,0,0,0,.62-.12,5.33,5.33,0,0,0,2-1.62l.13-.14,0,0,0,0,.16-.18.2-.23.29-.53.13-.19a4.16,4.16,0,0,0,.57-1c.12-.36.27-.74.46-1.18l.25-.59c0-.1.06-.22.1-.35a1.8,1.8,0,0,1,.16-.48c.18-.34.33-.69.52-1.13l.11-.2.2-.38.19-.43a6.13,6.13,0,0,0,.29-.62,3.75,3.75,0,0,1,.74-1.29,1.6,1.6,0,0,1,.44-.31h0a1.61,1.61,0,0,0,.26-.15l.45-.39.39-.22.08,0a5.21,5.21,0,0,0,.56-.31,3.16,3.16,0,0,0,.5-.35l.13-.11.47-.34a5.11,5.11,0,0,0,.69-.54c.16,0,.24.1.3.2l.07.22.19.42.15.16a1.24,1.24,0,0,0,1.18.61,2.39,2.39,0,0,0,.72-.27,3.78,3.78,0,0,1,.62-.28l.3-.1.05,0a2.61,2.61,0,0,0,.28-.17l.65-.19v0l.46-.26.9-.52h0a2.64,2.64,0,0,0,.52-.17l1-.53.7-.16a4.74,4.74,0,0,0,.57-.19l.49-.18.95-.19.66-.09a3.59,3.59,0,0,1,1.3.05,8.59,8.59,0,0,1,1,.3c.19.08.39.14.59.21l.37.07h0l.28.15a1.71,1.71,0,0,0,1.07.28h0A1,1,0,0,0,267.22,109.06Zm-23.86,8.74a1.05,1.05,0,0,1-.19.64l-.19.22,0,.08a.73.73,0,0,1-.29.7l-.09,0v.11a3,3,0,0,1-.81,1.54l-.11,0v.12c0,.31-.16.47-.37.64l0,0a1.79,1.79,0,0,0-.25.23,1.58,1.58,0,0,1-.51.44.91.91,0,0,1-1.14-.16c-.07-.13,0-.31.09-.61l.09-.29a3.92,3.92,0,0,1,.37-1,6.08,6.08,0,0,1,.93-1.24l.66-.83.4-.3.33-.28c.16-.17.42-.45.64-.47h0l.09-.31a2.33,2.33,0,0,0,.61-.47l0,.18a.88.88,0,0,1-.27.78l-.08,0Z"/></g></g></svg>